# xmcd
#
# Track frame offsets: 
#        150
#        9345
#        23641
#        71443
#        107691
#        134426
#        149713
#        173072
#        196059
#        216015
#        237164
#        251699
#        267860
#        303732
#
# Disc length: 4362 seconds
#
# Revision: 4
# Processed by: cddbd v1.5.2PL0 Copyright (c) Steve Scherf et al.
# Submitted via: ExactAudioCopy v1.1
#
DISCID=c311080e
DTITLE=すぎやまこういち - 交響組曲「ドラゴンクエスト Ⅳ 」導かれし者たち
DYEAR=2005
DGENRE=Game
TTITLE0=序曲
TTITLE1=王宮のメヌエット
TTITLE2=勇者の仲間たち
TTITLE3=街でのひととき
TTITLE4=勇者の故郷～馬車のマーチ
TTITLE5=立ちはだかる難敵
TTITLE6=恐怖の洞窟～呪われし塔
TTITLE7=エレジー～不思議のほこら
TTITLE8=のどかな熱気球のたび
TTITLE9=海図を広げて
TTITLE10=ピサロ～ピサロは征く
TTITLE11=謎の城
TTITLE12=栄光への戦い
TTITLE13=導かれし者たち
EXTD=YEAR: 2005
EXTT0=
EXTT1=
EXTT2=
EXTT3=
EXTT4=
EXTT5=
EXTT6=
EXTT7=
EXTT8=
EXTT9=
EXTT10=
EXTT11=
EXTT12=
EXTT13=
PLAYORDER=
